# File created by Blade
# Date/Time:  Thu Jan 22 19:13:21 2015
#---------------------------------------------------------
:version 1.10
:name HOM
:units
  mass 1.0
  length 1.000000
  angle deg
:documentation
     Acclaim Skeleton File
:root
   axis xyz
   order TX TY TZ RX RY RZ
   position 0.000000 0.000000 0.000000
   orientation 0 0 0
:bonedata
   begin
      id 1
      name RightUpLeg_dum
      direction -1.000000 0.000000 0.000000
      length 4.478084
      axis 0.0 0.0 0.0 xyz
   end
   begin
      id 2
      name LeftUpLeg_dum
      direction 1.000000 0.000000 0.000000
      length 4.478084
      axis 0.0 0.0 0.0 xyz
   end
   begin
      id 3
      name Spine_dum
      direction 0.000000 1.000000 0.000000
      length 6.068208
      axis 0.0 0.0 0.0 xyz
   end
   begin
      id 4
      name RightUpLeg
      direction 0.000000 -1.000000 0.000000
      length 16.405774
      axis 0.0 0.0 0.0 xyz
      dof rx ry rz
   end
   begin
      id 5
      name RightLeg
      direction 0.000000 -1.000000 0.000000
      length 14.644143
      axis 0.0 0.0 0.0 xyz
      dof rx ry rz
   end
   begin
      id 6
      name RightFoot
      direction 0.000000 -0.258819 0.965926
      length 5.806150
      axis 15.0 0.0 0.0 xyz
      dof rx ry rz
   end
   begin
      id 7
      name RightToeBase
      direction 0.000000 0.000000 1.000000
      length 2.952750
      axis 0.0 0.0 0.0 xyz
      dof rx ry rz
   end
   begin
      id 8
      name LeftUpLeg
      direction 0.000000 -1.000000 0.000000
      length 16.405774
      axis 0.0 0.0 0.0 xyz
      dof rx ry rz
   end
   begin
      id 9
      name LeftLeg
      direction 0.000000 -1.000000 0.000000
      length 14.644143
      axis 0.0 0.0 0.0 xyz
      dof rx ry rz
   end
   begin
      id 10
      name LeftFoot
      direction 0.000000 -0.258819 0.965926
      length 5.806150
      axis 15.0 0.0 0.0 xyz
      dof rx ry rz
   end
   begin
      id 11
      name LeftToeBase
      direction 0.000000 0.000000 1.000000
      length 2.952750
      axis 0.0 0.0 0.0 xyz
      dof rx ry rz
   end
   begin
      id 12
      name Spine
      direction 0.000000 1.000000 0.000000
      length 0.000000
      axis 0.0 0.0 0.0 xyz
      dof rx ry rz
   end
   begin
      id 13
      name Spine_dum1
      direction 0.000000 1.000000 0.000000
      length 10.013923
      axis 0.0 0.0 0.0 xyz
   end
   begin
      id 14
      name Spine_dum2
      direction 0.000000 1.000000 0.000000
      length 10.013923
      axis 0.0 0.0 0.0 xyz
   end
   begin
      id 15
      name Spine_dum3
      direction 0.000000 1.000000 0.000000
      length 15.777476
      axis 0.0 0.0 0.0 xyz
   end
   begin
      id 16
      name RightShoulder
      direction -1.000000 0.000000 0.000000
      length 7.190220
      axis 0.0 0.0 90.0 xyz
      dof rx ry rz
   end
   begin
      id 17
      name RightArm
      direction -1.000000 0.000000 0.000000
      length 10.177469
      axis 0.0 0.0 90.0 xyz
      dof rx ry rz
   end
   begin
      id 18
      name RightForeArm
      direction -1.000000 0.000000 0.000000
      length 8.392114
      axis 0.0 0.0 90.0 xyz
      dof ry rz rx
   end
   begin
      id 19
      name RightHand
      direction -1.000000 0.000000 0.000000
      length 0.000000
      axis 0.0 0.0 90.0 xyz
      dof rx ry rz
   end
   begin
      id 20
      name RightHand_dum1
      direction -1.000000 0.000000 0.000000
      length 3.937000
      axis 0.0 0.0 90.0 xyz
   end
   begin
      id 21
      name RightHand_dum2
      direction 0.000000 0.000000 0.000000
      length 0.000000
      axis 0.0 0.0 90.0 xyz
   end
   begin
      id 22
      name RightHandThumb1
      direction 0.000000 0.000000 1.000000
      length 3.937000
      axis 0.0 0.0 90.0 xyz
      dof rx rz ry
   end
   begin
      id 23
      name LeftShoulder
      direction 1.000000 0.000000 0.000000
      length 7.190220
      axis 0.0 0.0 -90.0 xyz
      dof rx ry rz
   end
   begin
      id 24
      name LeftArm
      direction 1.000000 0.000000 0.000000
      length 10.177469
      axis 0.0 0.0 -90.0 xyz
      dof rx ry rz
   end
   begin
      id 25
      name LeftForeArm
      direction 1.000000 0.000000 0.000000
      length 8.392114
      axis 0.0 0.0 -90.0 xyz
      dof ry rz rx
   end
   begin
      id 26
      name LeftHand
      direction 1.000000 0.000000 0.000000
      length 0.000000
      axis 0.0 0.0 -90.0 xyz
      dof rx ry rz
   end
   begin
      id 27
      name LeftHand_dum1
      direction 1.000000 0.000000 0.000000
      length 3.937000
      axis 0.0 0.0 -90.0 xyz
   end
   begin
      id 28
      name LeftHand_dum2
      direction 0.000000 0.000000 0.000000
      length 0.000000
      axis 0.0 0.0 -90.0 xyz
   end
   begin
      id 29
      name LeftHandThumb1
      direction 0.000000 0.000000 1.000000
      length 3.937000
      axis 0.0 0.0 -90.0 xyz
      dof rx rz ry
   end
   begin
      id 30
      name Head
      direction 0.000000 1.000000 0.000000
      length 4.527550
      axis 0.0 0.0 0.0 xyz
      dof rx ry rz
   end
:hierarchy
   begin
      root RightUpLeg_dum LeftUpLeg_dum Spine_dum
      RightUpLeg_dum RightUpLeg
      LeftUpLeg_dum LeftUpLeg
      Spine_dum Spine
      RightUpLeg RightLeg
      RightLeg RightFoot
      RightFoot RightToeBase
      LeftUpLeg LeftLeg
      LeftLeg LeftFoot
      LeftFoot LeftToeBase
      Spine Spine_dum1 Spine_dum2 Spine_dum3
      Spine_dum1 RightShoulder
      Spine_dum2 LeftShoulder
      Spine_dum3 Head
      RightShoulder RightArm
      RightArm RightForeArm
      RightForeArm RightHand
      RightHand RightHand_dum1 RightHand_dum2
      RightHand_dum2 RightHandThumb1
      LeftShoulder LeftArm
      LeftArm LeftForeArm
      LeftForeArm LeftHand
      LeftHand LeftHand_dum1 LeftHand_dum2
      LeftHand_dum2 LeftHandThumb1
   end

# File created by Blade
# Date/Time:  Thu Jan 22 19:13:14 2015
# Frame Rate: 120.000 fps
#------------------------------------------------------
:FULLY-SPECIFIED
:DEGREES
550
root 7.188212 30.575391 -3.687633 22.940618 -23.428558 31.720683
RightUpLeg -48.691925 -46.768287 -25.021400
RightLeg -3.365116 -0.000000 0.000000
RightFoot 6.642702 -5.718061 15.525102
RightToeBase 11.601801 -0.000000 -0.000000
LeftUpLeg -27.878006 9.379272 -18.314054
LeftLeg 4.622117 -0.000000 -0.000000
LeftFoot -6.111263 9.166330 -27.053096
LeftToeBase 10.212225 -0.000000 -0.000000
Spine 11.464833 18.827802 40.051519
RightShoulder -10.950010 -0.208798 -20.754253
RightArm 14.908209 49.628651 51.800099
RightForeArm 24.277380 -0.000000 15.983163
RightHand 14.233426 0.000000 6.924173
RightHandThumb1 -24.326973 -0.000000 -32.862282
LeftShoulder -25.777711 5.141667 42.559007
LeftArm -3.618795 -35.124980 -8.351361
LeftForeArm -3.936720 0.000000 3.772503
LeftHand -3.812827 -0.000000 -0.053445
LeftHandThumb1 -26.253704 0.000000 33.147579
Head -19.869195 13.542882 19.503035
551
root 7.191896 30.573136 -3.695057 22.990729 -23.478069 31.743864
RightUpLeg -48.686928 -46.617384 -25.250260
RightLeg -3.217705 -0.000000 0.000000
RightFoot 6.466025 -5.878884 15.698780
RightToeBase 11.848106 -0.000000 -0.000000
LeftUpLeg -27.936823 9.388754 -18.350544
LeftLeg 4.623747 -0.000000 -0.000000
LeftFoot -6.133465 9.077520 -27.016705
LeftToeBase 9.891394 -0.000000 -0.000000
Spine 11.483456 18.880928 40.003651
RightShoulder -10.954070 -0.131631 -20.725518
RightArm 14.708873 49.572257 51.697443
RightForeArm 24.363198 -0.000000 16.178825
RightHand 14.312176 -0.000000 6.495667
RightHandThumb1 -24.326973 -0.000000 -32.862282
LeftShoulder -25.806431 5.148606 42.580807
LeftArm -3.732290 -35.038180 -8.378133
LeftForeArm -4.021130 -0.000000 3.727004
LeftHand -3.722848 0.000000 -0.342560
LeftHandThumb1 -26.253704 0.000000 33.147579
Head -19.909661 13.773984 19.550598
552
root 7.193793 30.571545 -3.702897 23.047936 -23.547334 31.753639
RightUpLeg -48.739725 -46.476944 -25.388223
RightLeg -3.098288 -0.000000 0.000000
RightFoot 6.362870 -6.021892 15.854616
RightToeBase 11.854835 -0.000000 -0.000000
LeftUpLeg -28.005197 9.434971 -18.387394
LeftLeg 4.618418 -0.000000 -0.000000
LeftFoot -6.132204 8.997778 -26.979169
LeftToeBase 9.633700 -0.000000 -0.000000
Spine 11.495394 18.938419 39.965860
RightShoulder -10.935359 -0.071380 -20.718511
RightArm 14.570249 49.698167 51.735457
RightForeArm 24.217779 -0.000000 16.424843
RightHand 14.547725 0.000000 5.718661
RightHandThumb1 -24.326973 -0.000000 -32.862282
LeftShoulder -25.827143 5.188284 42.588889
LeftArm -3.844237 -35.008856 -8.404866
LeftForeArm -4.004511 -0.000000 3.697959
LeftHand -3.716027 -0.000000 -0.417935
LeftHandThumb1 -26.253704 0.000000 33.147579
Head -19.893761 14.022576 19.580089
553
root 7.193793 30.569792 -3.705545 23.093521 -23.601220 31.748439
RightUpLeg -48.751217 -46.365515 -25.484299
RightLeg -3.059590 -0.000000 0.000000
RightFoot 6.300876 -6.153577 15.953377
RightToeBase 11.972390 -0.000000 -0.000000
LeftUpLeg -28.045230 9.477147 -18.401796
LeftLeg 4.598936 -0.000000 -0.000000
LeftFoot -6.128241 8.946227 -26.981401
LeftToeBase 9.502520 -0.000000 -0.000000
Spine 11.499410 18.974239 39.960394
RightShoulder -10.942050 -0.087475 -20.707425
RightArm 14.585226 49.851083 51.854093
RightForeArm 24.213750 -0.000000 16.548497
RightHand 14.683993 -0.000000 5.636184
RightHandThumb1 -24.326973 -0.000000 -32.862282
LeftShoulder -25.865708 5.247353 42.570521
LeftArm -3.905284 -34.982228 -8.440219
LeftForeArm -4.125113 -0.000000 3.679589
LeftHand -3.620488 0.000000 -0.580454
LeftHandThumb1 -26.253704 0.000000 33.147579
Head -19.872009 14.217446 19.597189
554
root 7.193126 30.567733 -3.708414 23.142967 -23.669820 31.745467
RightUpLeg -48.817994 -46.271434 -25.517169
RightLeg -3.034402 -0.000000 0.000000
RightFoot 6.284880 -6.220990 15.965131
RightToeBase 11.992735 -0.000000 -0.000000
LeftUpLeg -28.090700 9.542338 -18.436431
LeftLeg 4.559646 -0.000000 -0.000000
LeftFoot -6.104925 8.892483 -27.000370
LeftToeBase 9.332600 -0.000000 -0.000000
Spine 11.501166 19.027051 39.936953
RightShoulder -10.946970 -0.120245 -20.676062
RightArm 14.580270 49.867917 51.899093
RightForeArm 24.393480 -0.000000 16.583078
RightHand 14.787751 -0.000000 5.651371
RightHandThumb1 -24.326973 -0.000000 -32.862282
LeftShoulder -25.901906 5.295730 42.571327
LeftArm -3.991461 -34.998153 -8.479632
LeftForeArm -4.216668 -0.000000 3.719369
LeftHand -3.574116 -0.000000 -0.786291
LeftHandThumb1 -26.253704 0.000000 33.147579
Head -19.856173 14.429543 19.631633
555
root 7.191588 30.566205 -3.709341 23.184871 -23.730863 31.749471
RightUpLeg -48.881431 -46.210846 -25.514707
RightLeg -3.055804 -0.000000 0.000000
RightFoot 6.288622 -6.270346 15.993315
RightToeBase 12.074012 -0.000000 -0.000000
LeftUpLeg -28.123845 9.571830 -18.461001
LeftLeg 4.522902 -0.000000 -0.000000
LeftFoot -6.100089 8.885657 -26.972046
LeftToeBase 9.251884 -0.000000 -0.000000
Spine 11.483650 19.047952 39.917984
RightShoulder -10.925012 -0.141062 -20.639326
RightArm 14.582105 49.853586 51.882754
RightForeArm 24.776998 -0.000000 16.487712
RightHand 14.480865 0.000000 6.899201
RightHandThumb1 -24.326973 -0.000000 -32.862282
LeftShoulder -25.924458 5.332133 42.566330
LeftArm -4.094780 -35.005882 -8.502732
LeftForeArm -4.257037 -0.000000 3.746669
LeftHand -3.532108 0.000000 -0.872721
LeftHandThumb1 -26.253704 0.000000 33.147579
Head -19.801673 14.653754 19.645508
556
root 7.189732 30.565166 -3.707522 23.199163 -23.793878 31.772234
RightUpLeg -48.939574 -46.172979 -25.509088
RightLeg -3.085237 -0.000000 0.000000
RightFoot 6.307793 -6.295869 15.943538
RightToeBase 12.096377 -0.000000 -0.000000
LeftUpLeg -28.126467 9.584935 -18.494308
LeftLeg 4.483750 -0.000000 -0.000000
LeftFoot -6.103839 8.916848 -26.922752
LeftToeBase 9.189124 -0.000000 -0.000000
Spine 11.475029 19.075130 39.884618
RightShoulder -10.938138 -0.184195 -20.595509
RightArm 14.630360 49.978125 51.980045
RightForeArm 24.746110 -0.000000 16.573423
RightHand 14.290474 -0.000000 7.195534
RightHandThumb1 -24.326973 -0.000000 -32.862282
LeftShoulder -25.933500 5.357970 42.554874
LeftArm -4.188152 -35.056441 -8.514341
LeftForeArm -4.370675 -0.000000 3.782217
LeftHand -3.468883 -0.000000 -0.960552
LeftHandThumb1 -26.253704 0.000000 33.147579
Head -19.757033 14.868517 19.680136
557
root 7.186517 30.564187 -3.703603 23.204432 -23.847402 31.781802
RightUpLeg -48.986976 -46.156330 -25.455178
RightLeg -3.156516 -0.000000 0.000000
RightFoot 6.357934 -6.299813 15.851868
RightToeBase 12.162686 -0.000000 -0.000000
LeftUpLeg -28.104616 9.562900 -18.491725
LeftLeg 4.436960 -0.000000 -0.000000
LeftFoot -6.136775 8.975577 -26.923353
LeftToeBase 9.187041 -0.000000 -0.000000
Spine 11.465089 19.083703 39.870131
RightShoulder -10.980029 -0.189549 -20.574625
RightArm 14.652115 49.925355 51.999876
RightForeArm 24.922340 -0.000000 16.536990
RightHand 14.356330 -0.000000 7.339324
RightHandThumb1 -24.326973 -0.000000 -32.862282
LeftShoulder -25.937689 5.380540 42.554422
LeftArm -4.268176 -35.056251 -8.534776
LeftForeArm -4.547882 -0.000000 3.775929
LeftHand -3.480560 -0.000000 -0.957080
LeftHandThumb1 -26.253704 0.000000 33.147579
Head -19.680641 15.061350 19.719060
558
root 7.183413 30.563842 -3.698925 23.202002 -23.900186 31.814386
RightUpLeg -49.024859 -46.155771 -25.420597
RightLeg -3.243556 -0.000000 0.000000
RightFoot 6.413289 -6.276326 15.836986
RightToeBase 12.171551 -0.000000 -0.000000
LeftUpLeg -28.080304 9.539270 -18.517179
LeftLeg 4.378521 -0.000000 -0.000000
LeftFoot -6.142681 9.076095 -26.925182
LeftToeBase 9.178318 -0.000000 -0.000000
Spine 11.442693 19.098812 39.837354
RightShoulder -10.970887 -0.216691 -20.540612
RightArm 14.544458 49.864452 51.913908
RightForeArm 25.076871 -0.000000 16.581075
RightHand 14.299371 -0.000000 7.424442
RightHandThumb1 -24.326973 -0.000000 -32.862282
LeftShoulder -25.936626 5.398357 42.537740
LeftArm -4.310189 -35.050601 -8.552111
LeftForeArm -4.754406 0.000000 3.730762
LeftHand -3.416211 -0.000000 -1.011971
LeftHandThumb1 -26.253704 0.000000 33.147579
Head -19.610404 15.207936 19.754971
559
root 7.179266 30.563509 -3.692163 23.193666 -23.948875 31.831610
RightUpLeg -49.073716 -46.176702 -25.329227
RightLeg -3.348077 -0.000000 0.000000
RightFoot 6.502416 -6.241627 15.744973
RightToeBase 12.137987 -0.000000 -0.000000
LeftUpLeg -28.036930 9.505774 -18.515547
LeftLeg 4.315000 -0.000000 -0.000000
LeftFoot -6.170315 9.173218 -26.985890
LeftToeBase 9.308902 -0.000000 -0.000000
Spine 11.418916 19.083999 39.829279
RightShoulder -10.987595 -0.244403 -20.525184
RightArm 14.619991 49.912350 52.015927
RightForeArm 25.079976 -0.000000 16.585589
RightHand 14.366861 -0.000000 7.382790
RightHandThumb1 -24.326973 -0.000000 -32.862282
LeftShoulder -25.919559 5.402754 42.518832
LeftArm -4.378054 -34.998530 -8.545513
LeftForeArm -4.877576 -0.000000 3.676675
LeftHand -3.369322 -0.000000 -1.083724
LeftHandThumb1 -26.253704 0.000000 33.147579
Head -19.514542 15.342134 19.788141
560
root 7.175976 30.562896 -3.685279 23.182826 -23.994355 31.868614
RightUpLeg -49.119407 -46.196468 -25.286577
RightLeg -3.415410 -0.000000 0.000000
RightFoot 6.565338 -6.216864 15.666509
RightToeBase 12.081872 -0.000000 -0.000000
LeftUpLeg -27.996205 9.436230 -18.513743
LeftLeg 4.255093 -0.000000 -0.000000
LeftFoot -6.184822 9.285022 -27.031510
LeftToeBase 9.344151 -0.000000 -0.000000
Spine 11.375974 19.080195 39.793541
RightShoulder -11.029535 -0.278435 -20.485958
RightArm 14.675260 49.843371 52.037159
RightForeArm 25.279094 -0.000000 16.551961
RightHand 14.480432 -0.000000 7.384125
RightHandThumb1 -24.326973 -0.000000 -32.862282
LeftShoulder -25.888974 5.403118 42.524478
LeftArm -4.445126 -35.001487 -8.567093
LeftForeArm -4.914856 -0.000000 3.656370
LeftHand -3.369233 -0.000000 -1.095962
LeftHandThumb1 -26.253704 0.000000 33.147579
Head -19.415254 15.433335 19.853831
